<?xml version="1.0" encoding="UTF-8" standalone="no"?>
<!-- Created with Inkscape (http://www.inkscape.org/) -->

<svg
   xmlns:osb="http://www.openswatchbook.org/uri/2009/osb"
   xmlns:dc="http://purl.org/dc/elements/1.1/"
   xmlns:cc="http://creativecommons.org/ns#"
   xmlns:rdf="http://www.w3.org/1999/02/22-rdf-syntax-ns#"
   xmlns:svg="http://www.w3.org/2000/svg"
   xmlns="http://www.w3.org/2000/svg"
   xmlns:sodipodi="http://sodipodi.sourceforge.net/DTD/sodipodi-0.dtd"
   xmlns:inkscape="http://www.inkscape.org/namespaces/inkscape"
   width="814.96063"
   height="814.96063"
   id="svg2"
   version="1.1"
   inkscape:version="0.48.4 r9939"
   sodipodi:docname="WordClock.svg">
  <defs
     id="defs4">
    <linearGradient
       id="linearGradient4117"
       osb:paint="solid">
      <stop
         style="stop-color:#ffffff;stop-opacity:1;"
         offset="0"
         id="stop4119" />
    </linearGradient>
    <linearGradient
       id="linearGradient4399"
       osb:paint="solid">
      <stop
         style="stop-color:#000000;stop-opacity:1;"
         offset="0"
         id="stop4401" />
    </linearGradient>
  </defs>
  <sodipodi:namedview
     id="base"
     pagecolor="#ffffff"
     bordercolor="#666666"
     borderopacity="1.0"
     inkscape:pageopacity="0.0"
     inkscape:pageshadow="2"
     inkscape:zoom="1"
     inkscape:cx="312.52975"
     inkscape:cy="274.50239"
     inkscape:document-units="px"
     inkscape:current-layer="layer1"
     showgrid="false"
     units="cm"
     inkscape:window-width="1280"
     inkscape:window-height="743"
     inkscape:window-x="0"
     inkscape:window-y="0"
     inkscape:window-maximized="1"
     showguides="true"
     inkscape:guide-bbox="true">
    <inkscape:grid
       type="xygrid"
       id="grid2985"
       empspacing="1"
       visible="true"
       enabled="true"
       snapvisiblegridlinesonly="true"
       units="mm"
       spacingx="16.5mm"
       spacingy="19mm" />
  </sodipodi:namedview>
  <metadata
     id="metadata7">
    <rdf:RDF>
      <cc:Work
         rdf:about="">
        <dc:format>image/svg+xml</dc:format>
        <dc:type
           rdf:resource="http://purl.org/dc/dcmitype/StillImage" />
        <dc:title />
      </cc:Work>
    </rdf:RDF>
  </metadata>
  <g
     inkscape:label="Layer 1"
     inkscape:groupmode="layer"
     id="layer1"
     transform="translate(0,-237.40026)">
    <g
       transform="matrix(-1,0,0,1,814.96064,237.40026)"
       style="font-size:48px;font-style:normal;font-variant:normal;font-weight:bold;font-stretch:normal;line-height:125%;letter-spacing:0px;word-spacing:0px;fill:#000000;fill-opacity:1;stroke:none;font-family:Ubuntu Mono;-inkscape-font-specification:Sans Bold"
       id="text2987" />
    <g
       transform="matrix(-1,0,0,1,814.96064,237.40026)"
       style="font-size:60px;font-style:normal;font-variant:normal;font-weight:bold;font-stretch:normal;line-height:125%;letter-spacing:0px;word-spacing:0px;fill:#000000;fill-opacity:1;stroke:none;font-family:Ubuntu Mono;-inkscape-font-specification:Sans Bold"
       id="text2995" />
    <g
       transform="matrix(-1,0,0,1,814.96064,237.40026)"
       style="font-size:94px;font-style:normal;font-variant:normal;font-weight:bold;font-stretch:normal;line-height:125%;letter-spacing:0px;word-spacing:0px;fill:#000000;fill-opacity:1;stroke:none;font-family:Ubuntu Mono;-inkscape-font-specification:Sans Bold"
       id="text3031" />
    <g
       transform="matrix(-1,0,0,1,814.96064,237.40026)"
       style="font-size:94px;font-style:normal;font-variant:normal;font-weight:bold;font-stretch:normal;line-height:125%;letter-spacing:0px;word-spacing:0px;fill:#000000;fill-opacity:1;stroke:none;font-family:Ubuntu Mono;-inkscape-font-specification:Sans Bold"
       id="text3035" />
    <g
       style="font-size:80px;font-style:normal;font-variant:normal;font-weight:bold;font-stretch:normal;line-height:125%;letter-spacing:0px;word-spacing:0px;fill:#000000;fill-opacity:1;stroke:none;font-family:Ubuntu Mono;-inkscape-font-specification:Sans Bold"
       id="text3111"
       transform="matrix(-1,0,0,1,746.2128,-7.7431044)">
      <path
         d="m 131.80912,446.45538 c -1.28001,-3.67999 -2.64001,-7.83999 -4.08,-12.48 -1.44001,-4.63998 -2.80001,-9.25331 -4.08,-13.84 -1.28,-4.63997 -2.42667,-9.01329 -3.44,-13.12 -1.01333,-4.10662 -1.76,-7.46662 -2.24,-10.08 l 10.4,0 c 0.31999,2.56005 0.79999,5.54671 1.44,8.96 0.63999,3.36004 1.33332,6.85337 2.08,10.48 0.79999,3.57336 1.62665,7.12003 2.48,10.64 0.90665,3.46669 1.78665,6.58668 2.64,9.36 0.85332,-2.71998 1.70665,-5.81331 2.56,-9.28 0.85331,-3.51997 1.65331,-7.06664 2.4,-10.64 0.74664,-3.62663 1.43998,-7.14663 2.08,-10.56 0.63998,-3.41329 1.17331,-6.39995 1.6,-8.96 l 10.32,0 c -0.64004,3.20005 -1.44003,6.77338 -2.4,10.72 -0.9067,3.9467 -1.97337,8.1067 -3.2,12.48 -1.17336,4.32003 -2.48003,8.74669 -3.92,13.28 -1.44003,4.48001 -2.93336,8.82667 -4.48,13.04 l -10.16,0"
         id="path4090"
         inkscape:connector-curvature="0" />
    </g>
    <g
       style="font-size:80px;font-style:normal;font-variant:normal;font-weight:bold;font-stretch:normal;line-height:125%;letter-spacing:0px;word-spacing:0px;fill:#000000;fill-opacity:1;stroke:none;font-family:Ubuntu Mono;-inkscape-font-specification:Sans Bold"
       id="text3115"
       transform="matrix(-1,0,0,1,746.2128,-7.7431044)">
      <path
         d="m 179.71369,446.45538 0,-8.16 10.8,0 0,-33.2 -10.8,0 0,-8.16 31.44,0 0,8.16 -10.72,0 0,33.2 10.72,0 0,8.16 -31.44,0"
         id="path4087"
         inkscape:connector-curvature="0" />
    </g>
    <g
       style="font-size:80px;font-style:normal;font-variant:normal;font-weight:bold;font-stretch:normal;line-height:125%;letter-spacing:0px;word-spacing:0px;fill:#000000;fill-opacity:1;stroke:none;font-family:Ubuntu Mono;-inkscape-font-specification:Sans Bold"
       id="text3119"
       transform="matrix(-1,0,0,1,746.2128,-7.7431044)">
      <path
         d="m 268.89825,429.89538 c -4e-5,2.40002 -0.32004,4.66668 -0.96,6.8 -0.5867,2.13334 -1.60004,4.00001 -3.04,5.6 -1.3867,1.60001 -3.20003,2.88 -5.44,3.84 -2.24003,0.90667 -4.96002,1.36 -8.16,1.36 -3.36002,0 -6.16002,-0.42666 -8.4,-1.28 -2.24001,-0.85333 -4.13334,-1.89333 -5.68,-3.12 l 3.76,-7.84 c 1.33332,0.85335 2.79999,1.68001 4.4,2.48 1.65332,0.80001 3.33331,1.20001 5.04,1.2 2.55998,10e-6 4.61331,-0.66666 6.16,-2 1.59997,-1.38665 2.39997,-3.91998 2.4,-7.6 l 0,-24.24 -16.56,0 0,-8.16 26.48,0 0,32.96"
         id="path4084"
         inkscape:connector-curvature="0" />
    </g>
    <g
       style="font-size:80px;font-style:normal;font-variant:normal;font-weight:bold;font-stretch:normal;line-height:125%;letter-spacing:0px;word-spacing:0px;fill:#000000;fill-opacity:1;stroke:none;font-family:Ubuntu Mono;-inkscape-font-specification:Sans Bold"
       id="text3123"
       transform="matrix(-1,0,0,1,746.2128,-7.7431044)">
      <path
         d="m 297.36285,446.45538 0,-49.52 30.32,0 0,8.16 -20.48,0 0,12 17.92,0 0,8.16 -17.92,0 0,21.2 -9.84,0"
         id="path4081"
         inkscape:connector-curvature="0" />
    </g>
    <g
       style="font-size:80px;font-style:normal;font-variant:normal;font-weight:bold;font-stretch:normal;line-height:125%;letter-spacing:0px;word-spacing:0px;fill:#000000;fill-opacity:1;stroke:none;font-family:Ubuntu Mono;-inkscape-font-specification:Sans Bold"
       id="text3127"
       transform="matrix(-1,0,0,1,746.2128,-7.7431044)">
      <path
         d="m 131.80912,513.7782 c -1.28001,-3.68 -2.64001,-7.83999 -4.08,-12.48 -1.44001,-4.63998 -2.80001,-9.25331 -4.08,-13.84 -1.28,-4.63997 -2.42667,-9.0133 -3.44,-13.12 -1.01333,-4.10662 -1.76,-7.46662 -2.24,-10.08 l 10.4,0 c 0.31999,2.56005 0.79999,5.54671 1.44,8.96 0.63999,3.36004 1.33332,6.85337 2.08,10.48 0.79999,3.57336 1.62665,7.12002 2.48,10.64 0.90665,3.46668 1.78665,6.58668 2.64,9.36 0.85332,-2.71999 1.70665,-5.81332 2.56,-9.28 0.85331,-3.51998 1.65331,-7.06664 2.4,-10.64 0.74664,-3.62663 1.43998,-7.14663 2.08,-10.56 0.63998,-3.41329 1.17331,-6.39995 1.6,-8.96 l 10.32,0 c -0.64004,3.20004 -1.44003,6.77337 -2.4,10.72 -0.9067,3.9467 -1.97337,8.1067 -3.2,12.48 -1.17336,4.32002 -2.48003,8.74668 -3.92,13.28 -1.44003,4.48001 -2.93336,8.82667 -4.48,13.04 l -10.16,0"
         id="path4078"
         inkscape:connector-curvature="0" />
    </g>
    <a
       id="a4667"
       transform="matrix(-1,0,0,1,814.96064,0)">
      <g
         transform="translate(68.747836,-7.7431044)"
         id="text3131"
         style="font-size:80px;font-style:normal;font-variant:normal;font-weight:bold;font-stretch:normal;line-height:125%;letter-spacing:0px;word-spacing:0px;fill:#000000;fill-opacity:1;stroke:none;font-family:Ubuntu Mono;-inkscape-font-specification:Sans Bold">
        <path
           d="m 266.59375,218.125 0,8.84375 c 0.61386,0.22526 1.15823,0.51989 1.625,0.9375 1.01331,0.9067 1.77914,2.14087 2.3125,3.6875 0.58664,1.5467 0.96497,3.39795 1.125,5.53125 0.2133,2.08003 0.31247,4.31878 0.3125,6.71875 -3e-5,2.40002 -0.0992,4.63877 -0.3125,6.71875 -0.16003,2.08001 -0.53836,3.90001 -1.125,5.5 -0.53336,1.54668 -1.30836,2.78084 -2.375,3.6875 -0.45029,0.40288 -0.98586,0.71364 -1.5625,0.9375 l 0,8.84375 c 4.52015,-0.53395 8.10353,-2.64787 10.75,-6.34375 3.09329,-4.37333 4.62496,-10.8104 4.625,-19.34375 -4e-5,-8.5333 -1.52254,-14.96121 -4.5625,-19.28125 -2.59499,-3.73307 -6.19679,-5.89097 -10.8125,-6.4375 z m -5.09375,0.0312 c -4.35112,0.59725 -7.8356,2.74664 -10.46875,6.40625 -3.14667,4.32004 -4.71875,10.74795 -4.71875,19.28125 0,8.53335 1.52249,14.97042 4.5625,19.34375 2.59214,3.62008 6.12282,5.72598 10.625,6.3125 l 0,-8.84375 c -0.53896,-0.22002 -1.0176,-0.53054 -1.4375,-0.90625 -1.01335,-0.90666 -1.8196,-2.14082 -2.40625,-3.6875 -0.53335,-1.54665 -0.91168,-3.35749 -1.125,-5.4375 -0.16,-2.13331 -0.21876,-4.38123 -0.21875,-6.78125 -10e-6,-2.39997 0.0587,-4.63872 0.21875,-6.71875 0.21332,-2.07997 0.59165,-3.8908 1.125,-5.4375 0.58665,-1.59996 1.3929,-2.87455 2.40625,-3.78125 0.4199,-0.37569 0.89854,-0.65498 1.4375,-0.875 l 0,-8.875 z"
           transform="translate(-68.747836,245.14336)"
           id="path4075"
           inkscape:connector-curvature="0" />
      </g>
    </a>
    <a
       id="a4671"
       transform="matrix(-1,0,0,1,814.96064,0)">
      <g
         transform="translate(68.747836,-7.7431044)"
         id="text3135"
         style="font-size:80px;font-style:normal;font-variant:normal;font-weight:bold;font-stretch:normal;line-height:125%;letter-spacing:0px;word-spacing:0px;fill:#000000;fill-opacity:1;stroke:none;font-family:Ubuntu Mono;-inkscape-font-specification:Sans Bold">
        <path
           d="m 320.0625,218.15625 c -4.39434,0.57957 -7.91063,2.72062 -10.5625,6.40625 -3.14667,4.32004 -4.71875,10.74795 -4.71875,19.28125 0,8.53335 1.49125,14.97042 4.53125,19.34375 2.60999,3.645 6.20358,5.74297 10.75,6.3125 l 0,-8.8125 c -0.57604,-0.22313 -1.08792,-0.54083 -1.53125,-0.9375 -1.01335,-0.90666 -1.8196,-2.14082 -2.40625,-3.6875 -0.53335,-1.54665 -0.91168,-3.35749 -1.125,-5.4375 -0.16,-2.13331 -0.21876,-4.38123 -0.21875,-6.78125 -10e-6,-2.39997 0.0587,-4.63872 0.21875,-6.71875 0.21332,-2.07997 0.59165,-3.8908 1.125,-5.4375 0.58665,-1.59996 1.3929,-2.87455 2.40625,-3.78125 0.44333,-0.39665 0.95521,-0.68313 1.53125,-0.90625 l 0,-8.84375 z m 5.125,0 0,8.84375 c 0.56498,0.2223 1.0636,0.51581 1.5,0.90625 1.01331,0.9067 1.77914,2.14087 2.3125,3.6875 0.58664,1.5467 0.96497,3.39795 1.125,5.53125 0.21331,2.08003 0.31247,4.31878 0.3125,6.71875 -3e-5,2.40002 -0.0992,4.63877 -0.3125,6.71875 -0.16003,2.08001 -0.53836,3.90001 -1.125,5.5 -0.53336,1.54668 -1.33961,2.78084 -2.40625,3.6875 -0.41992,0.37571 -0.87644,0.68623 -1.40625,0.90625 l 0,8.84375 c 4.45456,-0.56066 8.00578,-2.65465 10.625,-6.3125 3.0933,-4.37333 4.62496,-10.8104 4.625,-19.34375 -4e-5,-8.5333 -1.52254,-14.96121 -4.5625,-19.28125 -2.57087,-3.69837 -6.13328,-5.83546 -10.6875,-6.40625 z"
           transform="translate(-68.747836,245.14336)"
           id="path4072"
           inkscape:connector-curvature="0" />
      </g>
    </a>
    <a
       id="a4675"
       transform="matrix(-1,0,0,1,814.96064,0)">
      <g
         transform="translate(68.747836,-7.7431044)"
         id="text3139"
         style="font-size:80px;font-style:normal;font-variant:normal;font-weight:bold;font-stretch:normal;line-height:125%;letter-spacing:0px;word-spacing:0px;fill:#000000;fill-opacity:1;stroke:none;font-family:Ubuntu Mono;-inkscape-font-specification:Sans Bold">
        <path
           d="m 378.1875,218.5625 c -0.80002,0 -1.7146,0.009 -2.78125,0.0625 -1.06668,0.0534 -2.20168,0.14338 -3.375,0.25 -1.17335,0.0534 -2.35793,0.19296 -3.53125,0.40625 -1.12001,0.16005 -2.13376,0.34921 -3.09375,0.5625 l 0,12.5 9.8125,0 0,-5 c 0.53331,-0.1066 1.09165,-0.15621 1.625,-0.15625 0.53331,-0.0533 0.9704,-0.0625 1.34375,-0.0625 2.61331,4e-5 4.71247,0.61712 6.3125,1.84375 1.06908,0.81967 1.77025,1.93625 2.125,3.375 l 10.125,0 c -0.19339,-1.75875 -0.56048,-3.34835 -1.1875,-4.75 -0.85337,-2.07996 -2.12795,-3.79162 -3.78125,-5.125 -1.65337,-1.33329 -3.61295,-2.3287 -5.90625,-2.96875 -2.29336,-0.63995 -4.86086,-0.93745 -7.6875,-0.9375 z m -12.78125,18.78125 0,31.28125 9.8125,0 0,-18.21875 5.125,0 c 1.86664,3.04001 3.61872,6.04459 5.21875,9.03125 1.6533,2.93334 3.0858,5.9875 4.3125,9.1875 l 10.3125,0 c -0.64004,-1.65333 -1.40588,-3.37417 -2.3125,-5.1875 -0.85337,-1.86666 -1.75879,-3.71791 -2.71875,-5.53125 -0.96004,-1.86666 -1.95545,-3.6279 -2.96875,-5.28125 -1.01337,-1.70665 -1.96837,-3.23832 -2.875,-4.625 2.71996,-1.22665 4.67038,-3.02831 5.84375,-5.375 0.81348,-1.62701 1.34426,-3.36659 1.59375,-5.25 -0.38983,0.002 -0.36472,-0.001 -0.84375,0 -1.34543,0.003 -7.18515,-0.001 -9.375,0 -0.36055,1.16456 -0.99016,2.14746 -1.875,2.9375 -1.49336,1.28003 -3.89002,1.93752 -7.25,1.9375 l -2.1875,0 0,-4.90625 c -3.63886,-0.004 -4.75712,0.0111 -9.8125,0 z"
           transform="translate(-68.747836,245.14336)"
           id="path4069"
           inkscape:connector-curvature="0" />
      </g>
    </a>
    <g
       style="font-size:80px;font-style:normal;font-variant:normal;font-weight:bold;font-stretch:normal;line-height:125%;letter-spacing:0px;word-spacing:0px;fill:#000000;fill-opacity:1;stroke:none;font-family:Ubuntu Mono;-inkscape-font-specification:Sans Bold"
       id="text3143"
       transform="matrix(-1,0,0,1,746.2128,-7.7431044)">
      <path
         d="m 388.78741,396.93538 0,8.16 -13.04,0 0,41.36 -9.92,0 0,-41.36 -13.04,0 0,-8.16 36,0"
         id="path4066"
         inkscape:connector-curvature="0" />
    </g>
    <g
       style="font-size:80px;font-style:normal;font-variant:normal;font-weight:bold;font-stretch:normal;line-height:125%;letter-spacing:0px;word-spacing:0px;fill:#000000;fill-opacity:1;stroke:none;font-family:Ubuntu Mono;-inkscape-font-specification:Sans Bold"
       id="text3147"
       transform="matrix(-1,0,0,1,746.2128,-7.7431044)">
      <path
         d="m 413.57198,446.45538 0,-8.16 10.8,0 0,-33.2 -10.8,0 0,-8.16 31.44,0 0,8.16 -10.72,0 0,33.2 10.72,0 0,8.16 -31.44,0"
         id="path4063"
         inkscape:connector-curvature="0" />
    </g>
    <g
       style="font-size:80px;font-style:normal;font-variant:normal;font-weight:bold;font-stretch:normal;line-height:125%;letter-spacing:0px;word-spacing:0px;fill:#000000;fill-opacity:1;stroke:none;font-family:Ubuntu Mono;-inkscape-font-specification:Sans Bold"
       id="text3151"
       transform="matrix(-1,0,0,1,746.2128,-7.7431044)">
      <path
         d="m 472.75652,446.45538 0,-49.52 30,0 0,8.16 -20.16,0 0,11.12 17.52,0 0,8.16 -17.52,0 0,13.92 21.92,0 0,8.16 -31.76,0"
         id="path4060"
         inkscape:connector-curvature="0" />
    </g>
    <g
       style="font-size:80px;font-style:normal;font-variant:normal;font-weight:bold;font-stretch:normal;line-height:125%;letter-spacing:0px;word-spacing:0px;fill:#000000;fill-opacity:1;stroke:none;font-family:Ubuntu Mono;-inkscape-font-specification:Sans Bold"
       id="text3155"
       transform="matrix(-1,0,0,1,746.2128,-7.7431044)">
      <path
         d="m 554.58109,446.45538 c -2.24002,-5.49332 -4.69336,-10.95999 -7.36,-16.4 -2.61335,-5.49331 -5.44001,-10.98664 -8.48,-16.48 l 0,32.88 -8.88,0 0,-49.52 7.92,0 c 1.49332,2.34672 2.98665,4.90671 4.48,7.68 1.49332,2.72004 2.93332,5.44004 4.32,8.16 1.43998,2.72003 2.74664,5.36003 3.92,7.92 1.22664,2.56003 2.26664,4.80002 3.12,6.72 l 0,-30.48 8.88,0 0,49.52 -7.92,0"
         id="path4057"
         inkscape:connector-curvature="0" />
    </g>
    <a
       id="a4679"
       transform="matrix(-1,0,0,1,814.96064,0)">
      <g
         transform="translate(68.747836,-7.7431044)"
         id="text3159"
         style="font-size:80px;font-style:normal;font-variant:normal;font-weight:bold;font-stretch:normal;line-height:125%;letter-spacing:0px;word-spacing:0px;fill:#000000;fill-opacity:1;stroke:none;font-family:Ubuntu Mono;-inkscape-font-specification:Sans Bold">
        <path
           d="m 441.84375,218.125 0,8.78125 c 0.68,0.22667 1.27458,0.54668 1.78125,1 1.01331,0.9067 1.77915,2.14087 2.3125,3.6875 0.58664,1.5467 0.96498,3.39795 1.125,5.53125 0.21331,2.08003 0.31248,4.31878 0.3125,6.71875 -2e-5,2.40002 -0.0992,4.63877 -0.3125,6.71875 -0.16002,2.08001 -0.53836,3.90001 -1.125,5.5 -0.53335,1.54668 -1.3396,2.78084 -2.40625,3.6875 -0.4892,0.4377 -1.04915,0.7736 -1.6875,1 l 0,8.78125 c 4.58988,-0.50501 8.23102,-2.60769 10.90625,-6.34375 3.0933,-4.37333 4.62497,-10.8104 4.625,-19.34375 -3e-5,-8.5333 -1.52253,-14.96121 -4.5625,-19.28125 -2.62422,-3.77512 -6.27802,-5.92111 -10.96875,-6.4375 z m -5.125,0.0625 c -4.27446,0.628 -7.71272,2.76178 -10.3125,6.375 -3.14667,4.32004 -4.71875,10.74795 -4.71875,19.28125 0,8.53335 1.5225,14.97042 4.5625,19.34375 2.55572,3.56919 6.05633,5.66093 10.46875,6.28125 l 0,-8.90625 c -0.46231,-0.21016 -0.88009,-0.48152 -1.25,-0.8125 -1.01334,-0.90666 -1.81959,-2.14082 -2.40625,-3.6875 -0.53334,-1.54665 -0.91167,-3.35749 -1.125,-5.4375 -0.16,-2.13331 -0.25001,-4.38123 -0.25,-6.78125 -10e-6,-2.39997 0.09,-4.63872 0.25,-6.71875 0.21333,-2.07997 0.59166,-3.8908 1.125,-5.4375 0.58666,-1.59996 1.39291,-2.87455 2.40625,-3.78125 0.37306,-0.33378 0.78296,-0.6016 1.25,-0.8125 l 0,-8.90625 z"
           transform="translate(-68.747836,245.14336)"
           id="path4054"
           inkscape:connector-curvature="0" />
      </g>
    </a>
    <g
       style="font-size:80px;font-style:normal;font-variant:normal;font-weight:bold;font-stretch:normal;line-height:125%;letter-spacing:0px;word-spacing:0px;fill:#000000;fill-opacity:1;stroke:none;font-family:Ubuntu Mono;-inkscape-font-specification:Sans Bold"
       id="text3163"
       transform="matrix(-1,0,0,1,746.2128,-7.7431044)">
      <path
         d="m 424.13198,513.7782 c -1.28001,-3.68 -2.64001,-7.83999 -4.08,-12.48 -1.44001,-4.63998 -2.8,-9.25331 -4.08,-13.84 -1.28,-4.63997 -2.42667,-9.0133 -3.44,-13.12 -1.01333,-4.10662 -1.76,-7.46662 -2.24,-10.08 l 10.4,0 c 0.31999,2.56005 0.79999,5.54671 1.44,8.96 0.63999,3.36004 1.33332,6.85337 2.08,10.48 0.79999,3.57336 1.62665,7.12002 2.48,10.64 0.90665,3.46668 1.78665,6.58668 2.64,9.36 0.85332,-2.71999 1.70665,-5.81332 2.56,-9.28 0.85331,-3.51998 1.65331,-7.06664 2.4,-10.64 0.74664,-3.62663 1.43998,-7.14663 2.08,-10.56 0.63998,-3.41329 1.17331,-6.39995 1.6,-8.96 l 10.32,0 c -0.64003,3.20004 -1.44003,6.77337 -2.4,10.72 -0.9067,3.9467 -1.97336,8.1067 -3.2,12.48 -1.17336,4.32002 -2.48003,8.74668 -3.92,13.28 -1.44002,4.48001 -2.93336,8.82667 -4.48,13.04 l -10.16,0"
         id="path4051"
         inkscape:connector-curvature="0" />
    </g>
    <g
       style="font-size:80px;font-style:normal;font-variant:normal;font-weight:bold;font-stretch:normal;line-height:125%;letter-spacing:0px;word-spacing:0px;fill:#000000;fill-opacity:1;stroke:none;font-family:Ubuntu Mono;-inkscape-font-specification:Sans Bold"
       id="text3167"
       transform="matrix(-1,0,0,1,746.2128,-7.7431044)">
      <path
         d="m 472.75652,513.7782 0,-49.52 30,0 0,8.16 -20.16,0 0,11.12 17.52,0 0,8.16 -17.52,0 0,13.92 21.92,0 0,8.16 -31.76,0"
         id="path4048"
         inkscape:connector-curvature="0" />
    </g>
    <a
       id="a4683"
       transform="matrix(-1,0,0,1,814.96064,0)">
      <g
         transform="translate(68.747836,-7.7431044)"
         id="text3171"
         style="font-size:80px;font-style:normal;font-variant:normal;font-weight:bold;font-stretch:normal;line-height:125%;letter-spacing:0px;word-spacing:0px;fill:#000000;fill-opacity:1;stroke:none;font-family:Ubuntu Mono;-inkscape-font-specification:Sans Bold">
        <path
           d="m 612.0625,218.5625 c -0.80002,0 -1.74585,0.009 -2.8125,0.0625 -1.06668,0.0534 -2.20168,0.14338 -3.375,0.25 -1.17334,0.0534 -2.32667,0.19296 -3.5,0.40625 -1.12001,0.16005 -2.165,0.34921 -3.125,0.5625 l 0,12.0625 9.84375,0 0,-4.5625 c 0.53332,-0.1066 1.0604,-0.15621 1.59375,-0.15625 0.53332,-0.0533 1.00165,-0.0625 1.375,-0.0625 2.61331,4e-5 4.71248,0.61712 6.3125,1.84375 0.95798,0.73448 1.6156,1.70593 2,2.9375 l 10.1875,0 c -0.21059,-1.58261 -0.58218,-3.02922 -1.15625,-4.3125 -0.85337,-2.07996 -2.0967,-3.79162 -3.75,-5.125 -1.65336,-1.33329 -3.64419,-2.3287 -5.9375,-2.96875 -2.29335,-0.63995 -4.8296,-0.93745 -7.65625,-0.9375 z m -12.8125,18.34375 0,31.71875 9.84375,0 0,-18.21875 5.125,0 c 1.86665,3.04001 3.58748,6.04459 5.1875,9.03125 1.65331,2.93334 3.08581,5.9875 4.3125,9.1875 l 10.34375,0 c -0.64004,-1.65333 -1.43712,-3.37417 -2.34375,-5.1875 -0.85337,-1.86666 -1.75878,-3.71791 -2.71875,-5.53125 -0.96003,-1.86666 -1.9242,-3.6279 -2.9375,-5.28125 -1.01336,-1.70665 -1.99961,-3.23832 -2.90625,-4.625 2.71997,-1.22665 4.67039,-3.02831 5.84375,-5.375 0.8756,-1.75122 1.43406,-3.63923 1.65625,-5.6875 -0.67061,0.006 -0.86453,-0.003 -2,0 -1.16604,0.003 -6.33673,-0.001 -8.125,0 -0.33249,1.35944 -1.00637,2.48784 -2,3.375 -1.49335,1.28003 -3.92127,1.93752 -7.28125,1.9375 l -2.15625,0 0,-5.34375 c -3.49916,-0.003 -4.94359,0.0102 -9.84375,0 z"
           transform="translate(-68.747836,245.14336)"
           id="path4045"
           inkscape:connector-curvature="0" />
      </g>
    </a>
    <g
       style="font-size:80px;font-style:normal;font-variant:normal;font-weight:bold;font-stretch:normal;line-height:125%;letter-spacing:0px;word-spacing:0px;fill:#000000;fill-opacity:1;stroke:none;font-family:Ubuntu Mono;-inkscape-font-specification:Sans Bold"
       id="text3175"
       transform="matrix(-1,0,0,1,746.2128,-7.7431044)">
      <path
         d="m 153.32913,531.58107 0,49.52 -9.84,0 0,-21.84 -13.12,0 0,21.84 -9.84,0 0,-49.52 9.84,0 0,19.52 13.12,0 0,-19.52 9.84,0"
         id="path4042"
         inkscape:connector-curvature="0" />
    </g>
    <a
       id="a4687"
       transform="matrix(-1,0,0,1,814.96064,0)">
      <g
         transform="translate(68.747836,-7.7431044)"
         id="text3179"
         style="font-size:80px;font-style:normal;font-variant:normal;font-weight:bold;font-stretch:normal;line-height:125%;letter-spacing:0px;word-spacing:0px;fill:#000000;fill-opacity:1;stroke:none;font-family:Ubuntu Mono;-inkscape-font-specification:Sans Bold">
        <path
           d="m 258.9375,286.4375 c -1.8613,5.98277 -3.77824,12.33436 -5.75,18.90625 l 8.3125,0 1.03125,-3.9375 c 0.47998,-1.70663 0.9979,-3.50829 1.53125,-5.375 0.53332,1.86671 1.01081,3.66837 1.4375,5.375 0.38256,1.31779 0.71643,2.61976 1.03125,3.9375 l 8.90625,0 c -1.90037,-6.60362 -3.84459,-12.9201 -5.78125,-18.90625 l -10.71875,0 z m -7.28125,23.90625 c -2.29698,7.73463 -4.53321,16.27523 -6.78125,25.625 l 10.21875,0 2.25,-11.4375 13.1875,0 2.34375,11.4375 10.53125,0 c -2.1155,-9.18422 -4.29731,-17.70733 -6.5625,-25.59375 -1.41738,0.003 -6.88432,-8.8e-4 -9.125,0 0.06,0.29126 0.1308,0.58206 0.1875,0.875 0.31998,1.65336 0.64873,3.33378 0.96875,5.09375 l -9.6875,0 c 0.31999,-1.75997 0.64874,-3.44039 0.96875,-5.09375 0.0687,-0.30435 0.11878,-0.60371 0.1875,-0.90625 -2.89702,-0.002 -4.74142,0.007 -8.6875,0 z"
           transform="translate(-68.747836,245.14336)"
           id="path4039"
           inkscape:connector-curvature="0" />
      </g>
    </a>
    <g
       style="font-size:80px;font-style:normal;font-variant:normal;font-weight:bold;font-stretch:normal;line-height:125%;letter-spacing:0px;word-spacing:0px;fill:#000000;fill-opacity:1;stroke:none;font-family:Ubuntu Mono;-inkscape-font-specification:Sans Bold"
       id="text3183"
       transform="matrix(-1,0,0,1,746.2128,-7.7431044)">
      <path
         d="m 270.65828,581.10107 -31.12,0 0,-49.52 9.92,0 0,41.36 21.2,0 0,8.16"
         id="path4036"
         inkscape:connector-curvature="0" />
    </g>
    <g
       style="font-size:80px;font-style:normal;font-variant:normal;font-weight:bold;font-stretch:normal;line-height:125%;letter-spacing:0px;word-spacing:0px;fill:#000000;fill-opacity:1;stroke:none;font-family:Ubuntu Mono;-inkscape-font-specification:Sans Bold"
       id="text3187"
       transform="matrix(-1,0,0,1,746.2128,-7.7431044)">
      <path
         d="m 297.36285,581.10107 0,-49.52 30.32,0 0,8.16 -20.48,0 0,12 17.92,0 0,8.16 -17.92,0 0,21.2 -9.84,0"
         id="path4033"
         inkscape:connector-curvature="0" />
    </g>
    <a
       id="a4663"
       transform="matrix(-1,0,0,1,814.96064,0)">
      <g
         transform="translate(68.747836,-7.7431044)"
         id="text3191"
         style="font-size:80px;font-style:normal;font-variant:normal;font-weight:bold;font-stretch:normal;line-height:125%;letter-spacing:0px;word-spacing:0px;fill:#000000;fill-opacity:1;stroke:none;font-family:Ubuntu Mono;-inkscape-font-specification:Sans Bold">
        <path
           d="m 434.34375,286.4375 c -1.86185,5.98453 -3.80888,12.33226 -5.78125,18.90625 l 8.34375,0 1.03125,-3.9375 c 0.47999,-1.70663 0.9979,-3.50829 1.53125,-5.375 0.53332,1.86671 1.01082,3.66837 1.4375,5.375 0.38284,1.31876 0.71624,2.61878 1.03125,3.9375 l 8.875,0 c -1.90037,-6.60362 -3.81334,-12.9201 -5.75,-18.90625 l -10.71875,0 z m -7.28125,23.90625 c -2.29698,7.73463 -4.56446,16.27523 -6.8125,25.625 l 10.25,0 2.25,-11.4375 13.1875,0 2.3125,11.4375 10.5625,0 c -2.1155,-9.18422 -4.32855,-17.70733 -6.59375,-25.59375 -1.33479,0.003 -6.99038,-0.001 -9.125,0 0.0602,0.29198 0.13066,0.58134 0.1875,0.875 0.31998,1.65336 0.64873,3.33378 0.96875,5.09375 l -9.6875,0 c 0.31999,-1.75997 0.64874,-3.44039 0.96875,-5.09375 0.0669,-0.29619 0.15187,-0.58052 0.21875,-0.875 -2.77664,-0.002 -4.87884,-0.0249 -8.6875,-0.0312 z"
           transform="translate(-68.747836,245.14336)"
           id="path4030"
           inkscape:connector-curvature="0" />
      </g>
    </a>
    <g
       style="font-size:80px;font-style:normal;font-variant:normal;font-weight:bold;font-stretch:normal;line-height:125%;letter-spacing:0px;word-spacing:0px;fill:#000000;fill-opacity:1;stroke:none;font-family:Ubuntu Mono;-inkscape-font-specification:Sans Bold"
       id="text3195"
       transform="matrix(-1,0,0,1,746.2128,-7.7431044)">
      <path
         d="m 432.93198,582.14107 c -6.98668,0 -12.32001,-2.23999 -16,-6.72 -3.68,-4.47999 -5.52,-10.85331 -5.52,-19.12 0,-4.10663 0.56,-7.75996 1.68,-10.96 1.12,-3.19996 2.66666,-5.89329 4.64,-8.08 2.02666,-2.23995 4.39999,-3.91995 7.12,-5.04 2.77332,-1.17328 5.78665,-1.75995 9.04,-1.76 1.75998,5e-5 3.33331,0.16005 4.72,0.48 1.43997,0.26672 2.6933,0.58672 3.76,0.96 1.06664,0.37339 1.94664,0.77339 2.64,1.2 0.74663,0.42672 1.30663,0.74672 1.68,0.96 l -2.56,7.84 c -1.2267,-0.79996 -2.72003,-1.46662 -4.48,-2 -1.70669,-0.58662 -3.68002,-0.87995 -5.92,-0.88 -1.54669,5e-5 -3.06668,0.29338 -4.56,0.88 -1.44001,0.53338 -2.74668,1.46671 -3.92,2.8 -1.12001,1.28004 -2.05334,3.01337 -2.8,5.2 -0.69334,2.1867 -1.04001,4.9067 -1.04,8.16 -1e-5,5.65336 0.95999,10.00002 2.88,13.04 1.97332,2.98668 5.17332,4.48001 9.6,4.48 2.55998,1e-5 4.66664,-0.29332 6.32,-0.88 1.70664,-0.58665 3.06664,-1.17332 4.08,-1.76 l 2.48,7.76 c -1.3867,0.85334 -3.28003,1.65334 -5.68,2.4 -2.34669,0.69334 -5.06669,1.04 -8.16,1.04"
         id="path4027"
         inkscape:connector-curvature="0" />
    </g>
    <g
       style="font-size:80px;font-style:normal;font-variant:normal;font-weight:bold;font-stretch:normal;line-height:125%;letter-spacing:0px;word-spacing:0px;fill:#000000;fill-opacity:1;stroke:none;font-family:Ubuntu Mono;-inkscape-font-specification:Sans Bold"
       id="text3199"
       transform="matrix(-1,0,0,1,746.2128,-7.7431044)">
      <path
         d="m 504.11652,531.58107 0,49.52 -9.84,0 0,-21.84 -13.12,0 0,21.84 -9.84,0 0,-49.52 9.84,0 0,19.52 13.12,0 0,-19.52 9.84,0"
         id="path4024"
         inkscape:connector-curvature="0" />
    </g>
    <g
       style="font-size:80px;font-style:normal;font-variant:normal;font-weight:bold;font-stretch:normal;line-height:125%;letter-spacing:0px;word-spacing:0px;fill:#000000;fill-opacity:1;stroke:none;font-family:Ubuntu Mono;-inkscape-font-specification:Sans Bold"
       id="text3203"
       transform="matrix(-1,0,0,1,746.2128,-7.7431044)">
      <path
         d="m 564.18109,531.58107 0,8.16 -13.04,0 0,41.36 -9.92,0 0,-41.36 -13.04,0 0,-8.16 36,0"
         id="path4021"
         inkscape:connector-curvature="0" />
    </g>
    <g
       style="font-size:80px;font-style:normal;font-variant:normal;font-weight:bold;font-stretch:normal;line-height:125%;letter-spacing:0px;word-spacing:0px;fill:#000000;fill-opacity:1;stroke:none;font-family:Ubuntu Mono;-inkscape-font-specification:Sans Bold"
       id="text3207"
       transform="matrix(-1,0,0,1,746.2128,-7.7431044)">
      <path
         d="m 154.92914,598.90389 0,8.16 -13.04,0 0,41.36 -9.92,0 0,-41.36 -13.04,0 0,-8.16 36,0"
         id="path4018"
         inkscape:connector-curvature="0" />
    </g>
    <g
       style="font-size:80px;font-style:normal;font-variant:normal;font-weight:bold;font-stretch:normal;line-height:125%;letter-spacing:0px;word-spacing:0px;fill:#000000;fill-opacity:1;stroke:none;font-family:Ubuntu Mono;-inkscape-font-specification:Sans Bold"
       id="text3211"
       transform="matrix(-1,0,0,1,746.2128,-7.7431044)">
      <path
         d="m 179.71372,648.42389 0,-8.16 10.8,0 0,-33.2 -10.8,0 0,-8.16 31.44,0 0,8.16 -10.72,0 0,33.2 10.72,0 0,8.16 -31.44,0"
         id="path4015"
         inkscape:connector-curvature="0" />
    </g>
    <g
       style="font-size:80px;font-style:normal;font-variant:normal;font-weight:bold;font-stretch:normal;line-height:125%;letter-spacing:0px;word-spacing:0px;fill:#000000;fill-opacity:1;stroke:none;font-family:Ubuntu Mono;-inkscape-font-specification:Sans Bold"
       id="text3215"
       transform="matrix(-1,0,0,1,746.2128,-7.7431044)">
      <path
         d="m 238.89828,648.42389 0,-49.52 30,0 0,8.16 -20.16,0 0,11.12 17.52,0 0,8.16 -17.52,0 0,13.92 21.92,0 0,8.16 -31.76,0"
         id="path4012"
         inkscape:connector-curvature="0" />
    </g>
    <g
       style="font-size:80px;font-style:normal;font-variant:normal;font-weight:bold;font-stretch:normal;line-height:125%;letter-spacing:0px;word-spacing:0px;fill:#000000;fill-opacity:1;stroke:none;font-family:Ubuntu Mono;-inkscape-font-specification:Sans Bold"
       id="text3219"
       transform="matrix(-1,0,0,1,746.2128,-7.7431044)">
      <path
         d="m 320.72285,648.42389 c -2.24003,-5.49333 -4.69336,-10.95999 -7.36,-16.4 -2.61336,-5.49331 -5.44002,-10.98664 -8.48,-16.48 l 0,32.88 -8.88,0 0,-49.52 7.92,0 c 1.49332,2.34671 2.98665,4.90671 4.48,7.68 1.49331,2.72004 2.93331,5.44004 4.32,8.16 1.43997,2.72003 2.74664,5.36003 3.92,7.92 1.22664,2.56002 2.26664,4.80002 3.12,6.72 l 0,-30.48 8.88,0 0,49.52 -7.92,0"
         id="path4009"
         inkscape:connector-curvature="0" />
    </g>
    <g
       style="font-size:80px;font-style:normal;font-variant:normal;font-weight:bold;font-stretch:normal;line-height:125%;letter-spacing:0px;word-spacing:0px;fill:#000000;fill-opacity:1;stroke:none;font-family:Ubuntu Mono;-inkscape-font-specification:Sans Bold"
       id="text3223"
       transform="matrix(-1,0,0,1,746.2128,-7.7431044)">
      <path
         d="m 355.82741,648.42389 0,-49.52 30,0 0,8.16 -20.16,0 0,11.12 17.52,0 0,8.16 -17.52,0 0,13.92 21.92,0 0,8.16 -31.76,0"
         id="path4006"
         inkscape:connector-curvature="0" />
    </g>
    <g
       style="font-size:80px;font-style:normal;font-variant:normal;font-weight:bold;font-stretch:normal;line-height:125%;letter-spacing:0px;word-spacing:0px;fill:#000000;fill-opacity:1;stroke:none;font-family:Ubuntu Mono;-inkscape-font-specification:Sans Bold"
       id="text3227"
       transform="matrix(-1,0,0,1,746.2128,-7.7431044)">
      <path
         d="m 434.21198,606.34389 c -2.34669,4e-5 -4.32002,0.42671 -5.92,1.28 -1.60001,0.85337 -2.93335,2.05337 -4,3.6 -1.01334,1.49337 -1.76001,3.3067 -2.24,5.44 -0.42668,2.08003 -0.64001,4.40003 -0.64,6.96 -1e-5,5.92002 0.93332,10.29335 2.8,13.12 1.86665,2.77334 4.61332,4.16001 8.24,4.16 0.58665,10e-6 1.22665,-0.0267 1.92,-0.08 0.69331,-0.0533 1.33331,-0.13333 1.92,-0.24 l 0,-18.08 9.84,0 0,24.72 c -1.17337,0.42667 -3.01336,0.90667 -5.52,1.44 -2.45336,0.53333 -5.44002,0.8 -8.96,0.8 -3.09335,0 -5.89335,-0.53333 -8.4,-1.6 -2.45334,-1.12 -4.56001,-2.74666 -6.32,-4.88 -1.76,-2.18666 -3.12,-4.87999 -4.08,-8.08 -0.96,-3.25332 -1.44,-7.01331 -1.44,-11.28 0,-4.21331 0.56,-7.91997 1.68,-11.12 1.12,-3.25329 2.64,-5.97329 4.56,-8.16 1.91999,-2.18662 4.18666,-3.81329 6.8,-4.88 2.61332,-1.11995 5.41332,-1.67995 8.4,-1.68 1.91998,5e-5 3.62664,0.16005 5.12,0.48 1.54664,0.26672 2.87997,0.58672 4,0.96 1.11997,0.37338 2.02664,0.77338 2.72,1.2 0.74663,0.42671 1.30663,0.74671 1.68,0.96 l -2.56,7.84 c -1.17336,-0.74663 -2.61336,-1.41329 -4.32,-2 -1.70669,-0.58663 -3.46669,-0.87996 -5.28,-0.88"
         id="path4003"
         inkscape:connector-curvature="0" />
    </g>
    <g
       style="font-size:80px;font-style:normal;font-variant:normal;font-weight:bold;font-stretch:normal;line-height:125%;letter-spacing:0px;word-spacing:0px;fill:#000000;fill-opacity:1;stroke:none;font-family:Ubuntu Mono;-inkscape-font-specification:Sans Bold"
       id="text3231"
       transform="matrix(-1,0,0,1,746.2128,-7.7431044)">
      <path
         d="m 472.75652,648.42389 0,-49.52 30,0 0,8.16 -20.16,0 0,11.12 17.52,0 0,8.16 -17.52,0 0,13.92 21.92,0 0,8.16 -31.76,0"
         id="path4000"
         inkscape:connector-curvature="0" />
    </g>
    <g
       transform="matrix(-1,0,0,1,814.96064,237.40026)"
       style="font-size:80px;font-style:normal;font-variant:normal;font-weight:bold;font-stretch:normal;line-height:125%;letter-spacing:0px;word-spacing:0px;fill:#000000;fill-opacity:1;stroke:none;font-family:Ubuntu Mono;-inkscape-font-specification:Sans Bold"
       id="text3235" />
    <g
       style="font-size:80px;font-style:normal;font-variant:normal;font-weight:bold;font-stretch:normal;line-height:125%;letter-spacing:0px;word-spacing:0px;fill:#000000;fill-opacity:1;stroke:none;font-family:Ubuntu Mono;-inkscape-font-specification:Sans Bold"
       id="text3239"
       transform="matrix(-1,0,0,1,746.2128,-7.7431044)">
      <path
         d="m 554.58109,648.42389 c -2.24002,-5.49333 -4.69336,-10.95999 -7.36,-16.4 -2.61335,-5.49331 -5.44001,-10.98664 -8.48,-16.48 l 0,32.88 -8.88,0 0,-49.52 7.92,0 c 1.49332,2.34671 2.98665,4.90671 4.48,7.68 1.49332,2.72004 2.93332,5.44004 4.32,8.16 1.43998,2.72003 2.74664,5.36003 3.92,7.92 1.22664,2.56002 2.26664,4.80002 3.12,6.72 l 0,-30.48 8.88,0 0,49.52 -7.92,0"
         id="path3997"
         inkscape:connector-curvature="0" />
    </g>
    <g
       style="font-size:80px;font-style:normal;font-variant:normal;font-weight:bold;font-stretch:normal;line-height:125%;letter-spacing:0px;word-spacing:0px;fill:#000000;fill-opacity:1;stroke:none;font-family:Ubuntu Mono;-inkscape-font-specification:Sans Bold"
       id="text3184"
       transform="matrix(-1,0,0,1,746.2128,-7.7431044)">
      <path
         d="m 152.52913,673.1067 c -2.29337,3.52004 -4.40003,6.82671 -6.32,9.92 -1.92003,3.09337 -3.70669,6.05336 -5.36,8.88 -1.65336,2.77336 -3.22669,5.46669 -4.72,8.08 -1.44002,2.56002 -2.82668,5.09335 -4.16,7.6 l 21.28,0 0,8.16 -32.64,0 0,-5.68 c 1.17333,-2.29332 2.42666,-4.69332 3.76,-7.2 1.33333,-2.55998 2.82666,-5.27998 4.48,-8.16 1.65332,-2.87997 3.43999,-5.99997 5.36,-9.36 1.97331,-3.35996 4.13331,-7.01329 6.48,-10.96 l -19.04,0 0,-8.16 30.88,0 0,6.88"
         id="path3994"
         inkscape:connector-curvature="0" />
    </g>
    <g
       style="font-size:80px;font-style:normal;font-variant:normal;font-weight:bold;font-stretch:normal;line-height:125%;letter-spacing:0px;word-spacing:0px;fill:#000000;fill-opacity:1;stroke:none;font-family:Ubuntu Mono;-inkscape-font-specification:Sans Bold"
       id="text3188"
       transform="matrix(-1,0,0,1,746.2128,-7.7431044)">
      <path
         d="m 180.43371,715.7467 0,-49.52 30,0 0,8.16 -20.16,0 0,11.12 17.52,0 0,8.16 -17.52,0 0,13.92 21.92,0 0,8.16 -31.76,0"
         id="path3991"
         inkscape:connector-curvature="0" />
    </g>
    <g
       style="font-size:80px;font-style:normal;font-variant:normal;font-weight:bold;font-stretch:normal;line-height:125%;letter-spacing:0px;word-spacing:0px;fill:#000000;fill-opacity:1;stroke:none;font-family:Ubuntu Mono;-inkscape-font-specification:Sans Bold"
       id="text3192"
       transform="matrix(-1,0,0,1,746.2128,-7.7431044)">
      <path
         d="m 248.73826,715.7467 c -1.28001,-3.67999 -2.64001,-7.83999 -4.08,-12.48 -1.44001,-4.63998 -2.80001,-9.25331 -4.08,-13.84 -1.28,-4.63996 -2.42667,-9.01329 -3.44,-13.12 -1.01333,-4.10662 -1.76,-7.46662 -2.24,-10.08 l 10.4,0 c 0.31999,2.56005 0.79999,5.54671 1.44,8.96 0.63999,3.36004 1.33332,6.85337 2.08,10.48 0.79999,3.57336 1.62665,7.12003 2.48,10.64 0.90665,3.46669 1.78665,6.58668 2.64,9.36 0.85331,-2.71998 1.70665,-5.81331 2.56,-9.28 0.85331,-3.51997 1.65331,-7.06664 2.4,-10.64 0.74664,-3.62663 1.43997,-7.14663 2.08,-10.56 0.63997,-3.41329 1.17331,-6.39995 1.6,-8.96 l 10.32,0 c -0.64004,3.20005 -1.44004,6.77338 -2.4,10.72 -0.9067,3.94671 -1.97337,8.1067 -3.2,12.48 -1.17336,4.32003 -2.48003,8.74669 -3.92,13.28 -1.44003,4.48001 -2.93336,8.82667 -4.48,13.04 l -10.16,0"
         id="path3988"
         inkscape:connector-curvature="0" />
    </g>
    <g
       style="font-size:80px;font-style:normal;font-variant:normal;font-weight:bold;font-stretch:normal;line-height:125%;letter-spacing:0px;word-spacing:0px;fill:#000000;fill-opacity:1;stroke:none;font-family:Ubuntu Mono;-inkscape-font-specification:Sans Bold"
       id="text3196"
       transform="matrix(-1,0,0,1,746.2128,-7.7431044)">
      <path
         d="m 330.32285,666.2267 0,8.16 -13.04,0 0,41.36 -9.92,0 0,-41.36 -13.04,0 0,-8.16 36,0"
         id="path3985"
         inkscape:connector-curvature="0" />
    </g>
    <g
       style="font-size:80px;font-style:normal;font-variant:normal;font-weight:bold;font-stretch:normal;line-height:125%;letter-spacing:0px;word-spacing:0px;fill:#000000;fill-opacity:1;stroke:none;font-family:Ubuntu Mono;-inkscape-font-specification:Sans Bold"
       id="text3200"
       transform="matrix(-1,0,0,1,746.2128,-7.7431044)">
      <path
         d="m 374.46741,683.7467 c 0.21331,1.01337 0.53331,2.2667 0.96,3.76 0.42665,1.49336 0.87998,3.1467 1.36,4.96 0.53331,1.81336 1.09331,3.76002 1.68,5.84 0.63998,2.08002 1.25331,4.21335 1.84,6.4 -2e-5,-2.77332 -0.0267,-5.73331 -0.08,-8.88 -0.0534,-3.19997 -0.10669,-6.4533 -0.16,-9.76 -0.0534,-3.30663 -0.10669,-6.63996 -0.16,-10 -0.0534,-3.41329 -0.08,-6.69328 -0.08,-9.84 l 9.12,0 c -0.16003,4.05338 -0.32003,8.24005 -0.48,12.56 -0.16003,4.2667 -0.3467,8.53337 -0.56,12.8 -0.21337,4.21336 -0.48003,8.37335 -0.8,12.48 -0.2667,4.10668 -0.5867,8.00001 -0.96,11.68 l -8.16,0 c -1.17335,-3.35999 -2.34669,-6.95999 -3.52,-10.8 -1.17335,-3.89331 -2.34668,-7.59998 -3.52,-11.12 -1.17335,3.36002 -2.40001,7.01335 -3.68,10.96 -1.28001,3.94668 -2.45334,7.60001 -3.52,10.96 l -8.16,0 c -0.42667,-3.67999 -0.8,-7.57332 -1.12,-11.68 -0.32,-4.15998 -0.61333,-8.34664 -0.88,-12.56 -0.21333,-4.26663 -0.4,-8.5333 -0.56,-12.8 -0.16,-4.31995 -0.29333,-8.47995 -0.4,-12.48 l 9.12,0 c -0.0533,3.14672 -0.10667,6.40005 -0.16,9.76 -0.0533,3.36004 -0.10667,6.72004 -0.16,10.08 -0.0533,3.3067 -0.10667,6.56003 -0.16,9.76 -0.0533,3.14669 -0.08,6.10668 -0.08,8.88 0.47999,-1.70665 1.01333,-3.57331 1.6,-5.6 0.63999,-2.02664 1.22666,-4.02664 1.76,-6 0.58666,-1.9733 1.11999,-3.78664 1.6,-5.44 0.47999,-1.6533 0.85332,-2.95996 1.12,-3.92 l 7.2,0"
         id="path3982"
         inkscape:connector-curvature="0" />
    </g>
    <g
       style="font-size:80px;font-style:normal;font-variant:normal;font-weight:bold;font-stretch:normal;line-height:125%;letter-spacing:0px;word-spacing:0px;fill:#000000;fill-opacity:1;stroke:none;font-family:Ubuntu Mono;-inkscape-font-specification:Sans Bold"
       id="text3204"
       transform="matrix(-1,0,0,1,746.2128,-7.7431044)">
      <path
         d="m 414.29198,715.7467 0,-49.52 30,0 0,8.16 -20.16,0 0,11.12 17.52,0 0,8.16 -17.52,0 0,13.92 21.92,0 0,8.16 -31.76,0"
         id="path3979"
         inkscape:connector-curvature="0" />
    </g>
    <g
       style="font-size:80px;font-style:normal;font-variant:normal;font-weight:bold;font-stretch:normal;line-height:125%;letter-spacing:0px;word-spacing:0px;fill:#000000;fill-opacity:1;stroke:none;font-family:Ubuntu Mono;-inkscape-font-specification:Sans Bold"
       id="text3208"
       transform="matrix(-1,0,0,1,746.2128,-7.7431044)">
      <path
         d="m 472.75652,715.7467 0,-49.52 30,0 0,8.16 -20.16,0 0,11.12 17.52,0 0,8.16 -17.52,0 0,13.92 21.92,0 0,8.16 -31.76,0"
         id="path3976"
         inkscape:connector-curvature="0" />
    </g>
    <g
       style="font-size:80px;font-style:normal;font-variant:normal;font-weight:bold;font-stretch:normal;line-height:125%;letter-spacing:0px;word-spacing:0px;fill:#000000;fill-opacity:1;stroke:none;font-family:Ubuntu Mono;-inkscape-font-specification:Sans Bold"
       id="text3212"
       transform="matrix(-1,0,0,1,746.2128,-7.7431044)">
      <path
         d="m 554.58109,715.7467 c -2.24002,-5.49332 -4.69336,-10.95998 -7.36,-16.4 -2.61335,-5.49331 -5.44001,-10.98664 -8.48,-16.48 l 0,32.88 -8.88,0 0,-49.52 7.92,0 c 1.49332,2.34672 2.98665,4.90672 4.48,7.68 1.49332,2.72004 2.93332,5.44004 4.32,8.16 1.43998,2.72004 2.74664,5.36003 3.92,7.92 1.22664,2.56003 2.26664,4.80003 3.12,6.72 l 0,-30.48 8.88,0 0,49.52 -7.92,0"
         id="path3973"
         inkscape:connector-curvature="0" />
    </g>
    <g
       style="font-size:80px;font-style:normal;font-variant:normal;font-weight:bold;font-stretch:normal;line-height:125%;letter-spacing:0px;word-spacing:0px;fill:#000000;fill-opacity:1;stroke:none;font-family:Ubuntu Mono;-inkscape-font-specification:Sans Bold"
       id="text3216"
       transform="matrix(-1,0,0,1,746.2128,-7.7431044)">
      <path
         d="m 121.96913,783.06958 0,-49.52 30,0 0,8.16 -20.16,0 0,11.12 17.52,0 0,8.16 -17.52,0 0,13.92 21.92,0 0,8.16 -31.76,0"
         id="path3970"
         inkscape:connector-curvature="0" />
    </g>
    <g
       style="font-size:80px;font-style:normal;font-variant:normal;font-weight:bold;font-stretch:normal;line-height:125%;letter-spacing:0px;word-spacing:0px;fill:#000000;fill-opacity:1;stroke:none;font-family:Ubuntu Mono;-inkscape-font-specification:Sans Bold"
       id="text3220"
       transform="matrix(-1,0,0,1,746.2128,-7.7431044)">
      <path
         d="m 203.79371,783.06958 c -2.24003,-5.49333 -4.69336,-10.95999 -7.36,-16.4 -2.61335,-5.49331 -5.44002,-10.98664 -8.48,-16.48 l 0,32.88 -8.88,0 0,-49.52 7.92,0 c 1.49332,2.34671 2.98665,4.90671 4.48,7.68 1.49331,2.72004 2.93331,5.44004 4.32,8.16 1.43998,2.72003 2.74664,5.36003 3.92,7.92 1.22664,2.56002 2.26664,4.80002 3.12,6.72 l 0,-30.48 8.88,0 0,49.52 -7.92,0"
         id="path3967"
         inkscape:connector-curvature="0" />
    </g>
    <g
       style="font-size:80px;font-style:normal;font-variant:normal;font-weight:bold;font-stretch:normal;line-height:125%;letter-spacing:0px;word-spacing:0px;fill:#000000;fill-opacity:1;stroke:none;font-family:Ubuntu Mono;-inkscape-font-specification:Sans Bold"
       id="text3224"
       transform="matrix(-1,0,0,1,746.2128,-7.7431044)">
      <path
         d="m 271.85826,733.54958 0,8.16 -13.04,0 0,41.36 -9.92,0 0,-41.36 -13.04,0 0,-8.16 36,0"
         id="path3964"
         inkscape:connector-curvature="0" />
    </g>
    <g
       style="font-size:80px;font-style:normal;font-variant:normal;font-weight:bold;font-stretch:normal;line-height:125%;letter-spacing:0px;word-spacing:0px;fill:#000000;fill-opacity:1;stroke:none;font-family:Ubuntu Mono;-inkscape-font-specification:Sans Bold"
       id="text3228"
       transform="matrix(-1,0,0,1,746.2128,-7.7431044)">
      <path
         d="m 316.00285,751.06958 c 0.2133,1.01336 0.5333,2.2667 0.96,3.76 0.42664,1.49336 0.87997,3.14669 1.36,4.96 0.5333,1.81335 1.0933,3.76002 1.68,5.84 0.63997,2.08002 1.2533,4.21335 1.84,6.4 -3e-5,-2.77332 -0.0267,-5.73332 -0.08,-8.88 -0.0534,-3.19998 -0.1067,-6.45331 -0.16,-9.76 -0.0534,-3.30663 -0.1067,-6.63996 -0.16,-10 -0.0534,-3.41329 -0.08,-6.69329 -0.08,-9.84 l 9.12,0 c -0.16004,4.05338 -0.32004,8.24004 -0.48,12.56 -0.16004,4.2667 -0.34671,8.53336 -0.56,12.8 -0.21337,4.21335 -0.48004,8.37335 -0.8,12.48 -0.26671,4.10667 -0.58671,8 -0.96,11.68 l -8.16,0 c -1.17336,-3.36 -2.3467,-6.95999 -3.52,-10.8 -1.17336,-3.89332 -2.34669,-7.59998 -3.52,-11.12 -1.17336,3.36002 -2.40002,7.01335 -3.68,10.96 -1.28002,3.94667 -2.45335,7.6 -3.52,10.96 l -8.16,0 c -0.42668,-3.68 -0.80001,-7.57333 -1.12,-11.68 -0.32001,-4.15998 -0.61334,-8.34665 -0.88,-12.56 -0.21334,-4.26664 -0.40001,-8.5333 -0.56,-12.8 -0.16001,-4.31996 -0.29334,-8.47995 -0.4,-12.48 l 9.12,0 c -0.0534,3.14671 -0.10668,6.40004 -0.16,9.76 -0.0534,3.36004 -0.10668,6.72003 -0.16,10.08 -0.0534,3.30669 -0.10668,6.56002 -0.16,9.76 -0.0533,3.14668 -0.08,6.10668 -0.08,8.88 0.47998,-1.70665 1.01332,-3.57332 1.6,-5.6 0.63998,-2.02665 1.22665,-4.02665 1.76,-6 0.58665,-1.97331 1.11998,-3.78664 1.6,-5.44 0.47998,-1.6533 0.85331,-2.95997 1.12,-3.92 l 7.2,0"
         id="path3961"
         inkscape:connector-curvature="0" />
    </g>
    <a
       id="a4691"
       transform="matrix(-1,0,0,1,814.96064,0)">
      <g
         transform="translate(68.747836,-7.7431044)"
         id="text3232"
         style="font-size:80px;font-style:normal;font-variant:normal;font-weight:bold;font-stretch:normal;line-height:125%;letter-spacing:0px;word-spacing:0px;fill:#000000;fill-opacity:1;stroke:none;font-family:Ubuntu Mono;-inkscape-font-specification:Sans Bold">
        <path
           d="M 434.34375,488.40625 C 432.4584,494.4663 430.49868,500.898 428.5,507.5625 l 8.34375,0 1.09375,-4.1875 c 0.47999,-1.70663 0.9979,-3.5083 1.53125,-5.375 0.53332,1.8667 1.01082,3.66837 1.4375,5.375 0.40713,1.40241 0.76334,2.78514 1.09375,4.1875 l 8.875,0 c -1.92356,-6.69355 -3.85175,-13.09563 -5.8125,-19.15625 l -10.71875,0 z M 427,512.5625 c -2.27238,7.67028 -4.52554,16.12328 -6.75,25.375 l 10.25,0 2.25,-11.4375 13.1875,0 2.3125,11.4375 10.5625,0 c -2.09299,-9.08648 -4.26049,-17.5276 -6.5,-25.34375 -1.3676,0.003 -6.97358,-0.001 -9.15625,0 0.0422,0.20832 0.0845,0.41582 0.125,0.625 0.31998,1.65336 0.64873,3.33377 0.96875,5.09375 l -9.6875,0 c 0.31999,-1.75998 0.64874,-3.44039 0.96875,-5.09375 0.05,-0.22157 0.10622,-0.43564 0.15625,-0.65625 -2.83466,-0.002 -4.81423,0.007 -8.6875,0 z"
           transform="translate(-68.747836,245.14336)"
           id="path3958"
           inkscape:connector-curvature="0" />
      </g>
    </a>
    <a
       id="a4695"
       transform="matrix(-1,0,0,1,814.96064,0)">
      <g
         transform="translate(68.747836,-7.7431044)"
         id="text3236"
         style="font-size:80px;font-style:normal;font-variant:normal;font-weight:bold;font-stretch:normal;line-height:125%;letter-spacing:0px;word-spacing:0px;fill:#000000;fill-opacity:1;stroke:none;font-family:Ubuntu Mono;-inkscape-font-specification:Sans Bold">
        <path
           d="m 492.8125,488.40625 c -1.88535,6.06005 -3.84507,12.49175 -5.84375,19.15625 l 8.34375,0 1.09375,-4.1875 c 0.47998,-1.70663 0.96665,-3.5083 1.5,-5.375 0.53332,1.8667 1.04207,3.66837 1.46875,5.375 0.40691,1.40168 0.73222,2.78587 1.0625,4.1875 l 8.90625,0 c -1.92356,-6.69355 -3.85175,-13.09563 -5.8125,-19.15625 l -10.71875,0 z m -7.34375,24.15625 c -2.27256,7.67074 -4.52537,16.12259 -6.75,25.375 l 10.25,0 2.21875,-11.4375 13.21875,0 2.3125,11.4375 10.5625,0 c -2.09299,-9.08648 -4.26049,-17.5276 -6.5,-25.34375 -1.54026,0.003 -6.75787,-3.5e-4 -9.15625,0 0.0422,0.20832 0.0845,0.41582 0.125,0.625 0.31998,1.65336 0.64873,3.33377 0.96875,5.09375 l -9.6875,0 c 0.31999,-1.75998 0.64874,-3.44039 0.96875,-5.09375 0.05,-0.22157 0.10622,-0.43564 0.15625,-0.65625 -3.07476,-0.003 -4.53054,0.008 -8.6875,0 z"
           transform="translate(-68.747836,245.14336)"
           id="path3955"
           inkscape:connector-curvature="0" />
      </g>
    </a>
    <g
       style="font-size:80px;font-style:normal;font-variant:normal;font-weight:bold;font-stretch:normal;line-height:125%;letter-spacing:0px;word-spacing:0px;fill:#000000;fill-opacity:1;stroke:none;font-family:Ubuntu Mono;-inkscape-font-specification:Sans Bold"
       id="text3240"
       transform="matrix(-1,0,0,1,746.2128,-7.7431044)">
      <path
         d="m 504.51652,783.06958 -31.12,0 0,-49.52 9.92,0 0,41.36 21.2,0 0,8.16"
         id="path3952"
         inkscape:connector-curvature="0" />
    </g>
    <g
       style="font-size:80px;font-style:normal;font-variant:normal;font-weight:bold;font-stretch:normal;line-height:125%;letter-spacing:0px;word-spacing:0px;fill:#000000;fill-opacity:1;stroke:none;font-family:Ubuntu Mono;-inkscape-font-specification:Sans Bold"
       id="text3244"
       transform="matrix(-1,0,0,1,746.2128,-7.7431044)">
      <path
         d="m 531.22109,783.06958 0,-49.52 30.32,0 0,8.16 -20.48,0 0,12 17.92,0 0,8.16 -17.92,0 0,21.2 -9.84,0"
         id="path3949"
         inkscape:connector-curvature="0" />
    </g>
    <g
       style="font-size:80px;font-style:normal;font-variant:normal;font-weight:bold;font-stretch:normal;line-height:125%;letter-spacing:0px;word-spacing:0px;fill:#000000;fill-opacity:1;stroke:none;font-family:Ubuntu Mono;-inkscape-font-specification:Sans Bold"
       id="text3248"
       transform="matrix(-1,0,0,1,746.2128,-7.7431044)">
      <path
         d="m 131.80913,850.3924 c -1.28001,-3.68 -2.64001,-7.84 -4.08,-12.48 -1.44001,-4.63999 -2.80001,-9.25332 -4.08,-13.84 -1.28,-4.63997 -2.42667,-9.0133 -3.44,-13.12 -1.01334,-4.10663 -1.76,-7.46662 -2.24,-10.08 l 10.4,0 c 0.31999,2.56004 0.79999,5.54671 1.44,8.96 0.63999,3.36003 1.33332,6.85336 2.08,10.48 0.79998,3.57335 1.62665,7.12002 2.48,10.64 0.90665,3.46668 1.78665,6.58667 2.64,9.36 0.85331,-2.71999 1.70665,-5.81332 2.56,-9.28 0.85331,-3.51998 1.65331,-7.06665 2.4,-10.64 0.74664,-3.62664 1.43997,-7.14663 2.08,-10.56 0.63997,-3.41329 1.17331,-6.39996 1.6,-8.96 l 10.32,0 c -0.64004,3.20004 -1.44004,6.77337 -2.4,10.72 -0.9067,3.9467 -1.97337,8.10669 -3.2,12.48 -1.17337,4.32002 -2.48003,8.74668 -3.92,13.28 -1.44003,4.48 -2.93336,8.82667 -4.48,13.04 l -10.16,0"
         id="path3946"
         inkscape:connector-curvature="0" />
    </g>
    <g
       style="font-size:80px;font-style:normal;font-variant:normal;font-weight:bold;font-stretch:normal;line-height:125%;letter-spacing:0px;word-spacing:0px;fill:#000000;fill-opacity:1;stroke:none;font-family:Ubuntu Mono;-inkscape-font-specification:Sans Bold"
       id="text3252"
       transform="matrix(-1,0,0,1,746.2128,-7.7431044)">
      <path
         d="m 268.89826,833.8324 c -3e-5,2.40001 -0.32003,4.66667 -0.96,6.8 -0.5867,2.13334 -1.60003,4 -3.04,5.6 -1.3867,1.6 -3.20003,2.88 -5.44,3.84 -2.24002,0.90666 -4.96002,1.35999 -8.16,1.36 -3.36001,-10e-6 -6.16001,-0.42667 -8.4,-1.28 -2.24001,-0.85334 -4.13334,-1.89334 -5.68,-3.12 l 3.76,-7.84 c 1.33333,0.85334 2.79999,1.68 4.4,2.48 1.65332,0.8 3.33332,1.2 5.04,1.2 2.55998,0 4.61331,-0.66666 6.16,-2 1.59998,-1.38666 2.39998,-3.91999 2.4,-7.6 l 0,-24.24 -16.56,0 0,-8.16 26.48,0 0,32.96"
         id="path3943"
         inkscape:connector-curvature="0" />
    </g>
    <g
       style="font-size:80px;font-style:normal;font-variant:normal;font-weight:bold;font-stretch:normal;line-height:125%;letter-spacing:0px;word-spacing:0px;fill:#000000;fill-opacity:1;stroke:none;font-family:Ubuntu Mono;-inkscape-font-specification:Sans Bold"
       id="text3256"
       transform="matrix(-1,0,0,1,746.2128,-7.7431044)">
      <path
         d="m 179.71371,850.3924 0,-8.16 10.8,0 0,-33.2 -10.8,0 0,-8.16 31.44,0 0,8.16 -10.72,0 0,33.2 10.72,0 0,8.16 -31.44,0"
         id="path3940"
         inkscape:connector-curvature="0" />
    </g>
    <g
       style="font-size:80px;font-style:normal;font-variant:normal;font-weight:bold;font-stretch:normal;line-height:125%;letter-spacing:0px;word-spacing:0px;fill:#000000;fill-opacity:1;stroke:none;font-family:Ubuntu Mono;-inkscape-font-specification:Sans Bold"
       id="text3260"
       transform="matrix(-1,0,0,1,746.2128,-7.7431044)">
      <path
         d="m 297.36285,850.3924 0,-49.52 30.32,0 0,8.16 -20.48,0 0,12 17.92,0 0,8.16 -17.92,0 0,21.2 -9.84,0"
         id="path3937"
         inkscape:connector-curvature="0" />
    </g>
    <g
       style="font-size:80px;font-style:normal;font-variant:normal;font-weight:bold;font-stretch:normal;line-height:125%;letter-spacing:0px;word-spacing:0px;fill:#000000;fill-opacity:1;stroke:none;font-family:Ubuntu Mono;-inkscape-font-specification:Sans Bold"
       id="text3268"
       transform="matrix(-1,0,0,1,746.2128,-7.7431044)">
      <path
         d="m 444.85198,807.7524 c -2.29336,3.52003 -4.40003,6.8267 -6.32,9.92 -1.92002,3.09336 -3.70669,6.05336 -5.36,8.88 -1.65335,2.77335 -3.22668,5.46668 -4.72,8.08 -1.44001,2.56001 -2.82668,5.09334 -4.16,7.6 l 21.28,0 0,8.16 -32.64,0 0,-5.68 c 1.17333,-2.29333 2.42666,-4.69333 3.76,-7.2 1.33333,-2.55999 2.82666,-5.27999 4.48,-8.16 1.65332,-2.87998 3.43999,-5.99998 5.36,-9.36 1.97332,-3.35997 4.13332,-7.0133 6.48,-10.96 l -19.04,0 0,-8.16 30.88,0 0,6.88"
         id="path3931"
         inkscape:connector-curvature="0" />
    </g>
    <g
       transform="matrix(-1,0,0,1,814.96064,237.40026)"
       style="font-size:80px;font-style:normal;font-variant:normal;font-weight:bold;font-stretch:normal;line-height:125%;letter-spacing:0px;word-spacing:0px;fill:#000000;fill-opacity:1;stroke:none;font-family:Ubuntu Mono;-inkscape-font-specification:Sans Bold"
       id="text3272" />
    <g
       style="font-size:80px;font-style:normal;font-variant:normal;font-weight:bold;font-stretch:normal;line-height:125%;letter-spacing:0px;word-spacing:0px;fill:#000000;fill-opacity:1;stroke:none;font-family:Ubuntu Mono;-inkscape-font-specification:Sans Bold"
       id="text3276"
       transform="matrix(-1,0,0,1,746.2128,-7.7431044)">
      <path
         d="m 472.75652,850.3924 0,-49.52 30,0 0,8.16 -20.16,0 0,11.12 17.52,0 0,8.16 -17.52,0 0,13.92 21.92,0 0,8.16 -31.76,0"
         id="path3928"
         inkscape:connector-curvature="0" />
    </g>
    <g
       style="font-size:80px;font-style:normal;font-variant:normal;font-weight:bold;font-stretch:normal;line-height:125%;letter-spacing:0px;word-spacing:0px;fill:#000000;fill-opacity:1;stroke:none;font-family:Ubuntu Mono;-inkscape-font-specification:Sans Bold"
       id="text3280"
       transform="matrix(-1,0,0,1,746.2128,-7.7431044)">
      <path
         d="m 544.74109,843.1924 c 1.65331,0 3.01331,-0.16 4.08,-0.48 1.11998,-0.37333 1.99998,-0.85333 2.64,-1.44 0.63998,-0.64 1.06664,-1.33333 1.28,-2.08 0.26664,-0.79999 0.39997,-1.59999 0.4,-2.4 -3e-5,-1.01332 -0.29336,-1.91999 -0.88,-2.72 -0.58669,-0.79999 -1.33336,-1.49332 -2.24,-2.08 -0.90669,-0.63999 -1.92002,-1.19999 -3.04,-1.68 -1.12002,-0.53332 -2.24002,-1.01332 -3.36,-1.44 -1.49335,-0.53332 -3.04001,-1.14665 -4.64,-1.84 -1.60001,-0.69331 -3.06668,-1.57331 -4.4,-2.64 -1.28001,-1.06664 -2.34667,-2.37331 -3.2,-3.92 -0.85334,-1.59997 -1.28,-3.5733 -1.28,-5.92 0,-4.63996 1.49333,-8.26663 4.48,-10.88 3.03999,-2.61329 7.19999,-3.91995 12.48,-3.92 3.03998,5e-5 5.67997,0.34671 7.92,1.04 2.2933,0.69338 4.2133,1.46671 5.76,2.32 l -2.88,7.6 c -1.33336,-0.74663 -2.82669,-1.38663 -4.48,-1.92 -1.60002,-0.5333 -3.46669,-0.79996 -5.6,-0.8 -5.22668,4e-5 -7.84001,1.89337 -7.84,5.68 -10e-6,0.96003 0.26665,1.81336 0.8,2.56 0.53332,0.69336 1.19999,1.33336 2,1.92 0.85332,0.53336 1.78665,1.01336 2.8,1.44 1.06665,0.42669 2.10665,0.82669 3.12,1.2 1.54664,0.58669 3.14664,1.25336 4.8,2 1.70664,0.69336 3.2533,1.65335 4.64,2.88 1.43997,1.17335 2.6133,2.66668 3.52,4.48 0.90663,1.76001 1.35996,4.00001 1.36,6.72 -4e-5,4.64 -1.52003,8.24 -4.56,10.8 -2.98669,2.50666 -7.54669,3.75999 -13.68,3.76 -4.10668,-10e-6 -7.38668,-0.42667 -9.84,-1.28 -2.45334,-0.90667 -4.29334,-1.73334 -5.52,-2.48 l 2.88,-8 c 1.43999,0.85334 3.14666,1.65334 5.12,2.4 2.02665,0.74667 4.47999,1.12 7.36,1.12"
         id="path3925"
         inkscape:connector-curvature="0" />
    </g>
    <g
       style="font-size:80px;font-style:normal;font-variant:normal;font-weight:bold;font-stretch:normal;line-height:125%;letter-spacing:0px;word-spacing:0px;fill:#000000;fill-opacity:1;stroke:none;font-family:Ubuntu Mono;-inkscape-font-specification:Sans Bold"
       id="text3284"
       transform="matrix(-1,0,0,1,746.2128,-7.7431044)">
      <path
         d="m 201.84375,622.5 c -1.70668,5e-5 -3.55793,0.0588 -5.53125,0.21875 -1.97334,0.16005 -4.07251,0.4888 -6.3125,0.96875 l 0,21.6875 9.84375,-0.0625 0,-14.03125 c 0.42665,-0.1066 0.90415,-0.15621 1.4375,-0.15625 0.53332,-0.0533 1.01082,-0.0625 1.4375,-0.0625 2.18665,4e-5 3.95706,0.47754 5.34375,1.4375 1.38664,0.90671 2.48123,2.10962 3.28125,3.65625 0.79997,1.5467 1.36747,3.34837 1.6875,5.375 0.19037,1.2058 0.3234,2.4411 0.40625,3.6875 l 10.03125,-0.0937 c -0.18011,-3.34529 -0.71424,-6.27877 -1.5625,-8.78125 -1.01337,-3.19996 -2.44587,-5.81704 -4.3125,-7.84375 -1.8667,-2.07995 -4.15503,-3.60245 -6.875,-4.5625 -2.66669,-0.95995 -5.62169,-1.43745 -8.875,-1.4375 z m 21.625,27.625 -10,0.0937 c -0.10106,1.52079 -0.31372,2.97855 -0.59375,4.34375 -0.37336,2.02668 -1.04003,3.78793 -2,5.28125 -0.90669,1.49334 -2.14086,2.67793 -3.6875,3.53125 -1.49335,0.85334 -3.35377,1.28126 -5.59375,1.28125 l -0.875,0 c -0.32001,0 -0.60835,-0.0404 -0.875,-0.0937 l 0,-14.25 L 190,650.375 190,672 c 1.91999,0.42667 3.69041,0.74625 5.34375,0.90625 1.70666,0.21333 3.45874,0.3125 5.21875,0.3125 3.35998,0 6.41415,-0.46833 9.1875,-1.375 2.82664,-0.96 5.25455,-2.44208 7.28125,-4.46875 2.02663,-2.02666 3.59872,-4.64374 4.71875,-7.84375 0.96744,-2.68252 1.54392,-5.81959 1.71875,-9.40625 z"
         transform="translate(-68.747836,245.14336)"
         id="path3922"
         inkscape:connector-curvature="0" />
    </g>
    <a
       id="a4707"
       transform="matrix(-1,0,0,1,814.96064,0)">
      <g
         transform="translate(68.747836,-7.7431044)"
         id="text3288"
         style="font-size:80px;font-style:normal;font-variant:normal;font-weight:bold;font-stretch:normal;line-height:125%;letter-spacing:0px;word-spacing:0px;fill:#000000;fill-opacity:1;stroke:none;font-family:Ubuntu Mono;-inkscape-font-specification:Sans Bold">
        <path
           d="m 261.25,622.5 c -0.80002,10e-5 -1.7146,0.009 -2.78125,0.0625 -1.06668,0.0534 -2.20168,0.14338 -3.375,0.25 -1.17335,0.0534 -2.32668,0.19297 -3.5,0.40625 -1.12001,0.16005 -2.16501,0.34922 -3.125,0.5625 l 0,12.40625 9.84375,0 0,-4.90625 c 0.53332,-0.1066 1.0604,-0.15621 1.59375,-0.15625 0.53331,-0.0533 0.9704,-0.0625 1.34375,-0.0625 2.61331,4e-5 4.74373,0.61712 6.34375,1.84375 1.04549,0.80158 1.73141,1.88762 2.09375,3.28125 l 10.15625,0 c -0.19752,-1.72129 -0.60287,-3.27948 -1.21875,-4.65625 -0.85337,-2.07996 -2.0967,-3.79162 -3.75,-5.125 -1.65337,-1.33329 -3.6442,-2.3287 -5.9375,-2.96875 -2.29336,-0.63995 -4.86086,-0.93745 -7.6875,-0.9375 z m -12.78125,18.6875 0,31.375 9.84375,0 0,-18.21875 5.09375,0 c 1.86664,3.04002 3.61872,6.0446 5.21875,9.03125 1.6533,2.93334 3.0858,5.9875 4.3125,9.1875 l 10.3125,0 c -0.64004,-1.65333 -1.40587,-3.37416 -2.3125,-5.1875 -0.85337,-1.86666 -1.75879,-3.71791 -2.71875,-5.53125 -0.96004,-1.86665 -1.95545,-3.6279 -2.96875,-5.28125 -1.01337,-1.70665 -1.96837,-3.23831 -2.875,-4.625 2.71997,-1.22664 4.67038,-3.02831 5.84375,-5.375 0.82489,-1.64981 1.34878,-3.4303 1.59375,-5.34375 -0.45381,-2.9e-4 -0.44574,-0.001 -1.03125,0 -1.31525,0.003 -7.04191,-0.001 -9.15625,0 -0.35567,1.207 -0.96592,2.21958 -1.875,3.03125 -1.49336,1.28003 -3.92127,1.90628 -7.28125,1.90625 l -2.15625,0 0,-4.96875 c -3.61982,-0.004 -4.79545,0.011 -9.84375,0 z"
           transform="translate(-68.747836,245.14336)"
           id="path3919"
           inkscape:connector-curvature="0" />
      </g>
    </a>
    <g
       style="font-size:80px;font-style:normal;font-variant:normal;font-weight:bold;font-stretch:normal;line-height:125%;letter-spacing:0px;word-spacing:0px;fill:#000000;fill-opacity:1;stroke:none;font-family:Ubuntu Mono;-inkscape-font-specification:Sans Bold"
       id="text3292"
       transform="matrix(-1,0,0,1,746.2128,-7.7431044)">
      <path
         d="m 238.17826,917.71521 0,-8.16 10.8,0 0,-33.2 -10.8,0 0,-8.16 31.44,0 0,8.16 -10.72,0 0,33.2 10.72,0 0,8.16 -31.44,0"
         id="path3916"
         inkscape:connector-curvature="0" />
    </g>
    <g
       style="font-size:80px;font-style:normal;font-variant:normal;font-weight:bold;font-stretch:normal;line-height:125%;letter-spacing:0px;word-spacing:0px;fill:#000000;fill-opacity:1;stroke:none;font-family:Ubuntu Mono;-inkscape-font-specification:Sans Bold"
       id="text3296"
       transform="matrix(-1,0,0,1,746.2128,-7.7431044)">
      <path
         d="m 297.36285,917.71521 0,-49.52 30,0 0,8.16 -20.16,0 0,11.12 17.52,0 0,8.16 -17.52,0 0,13.92 21.92,0 0,8.16 -31.76,0"
         id="path3913"
         inkscape:connector-curvature="0" />
    </g>
    <g
       style="font-size:80px;font-style:normal;font-variant:normal;font-weight:bold;font-stretch:normal;line-height:125%;letter-spacing:0px;word-spacing:0px;fill:#000000;fill-opacity:1;stroke:none;font-family:Ubuntu Mono;-inkscape-font-specification:Sans Bold"
       id="text3300"
       transform="matrix(-1,0,0,1,746.2128,-7.7431044)">
      <path
         d="m 365.66741,917.71521 c -1.28001,-3.68 -2.64001,-7.83999 -4.08,-12.48 -1.44,-4.63998 -2.8,-9.25331 -4.08,-13.84 -1.28,-4.63997 -2.42667,-9.0133 -3.44,-13.12 -1.01333,-4.10662 -1.76,-7.46662 -2.24,-10.08 l 10.4,0 c 0.31999,2.56005 0.79999,5.54671 1.44,8.96 0.63999,3.36004 1.33332,6.85337 2.08,10.48 0.79999,3.57336 1.62665,7.12002 2.48,10.64 0.90665,3.46668 1.78665,6.58668 2.64,9.36 0.85332,-2.71999 1.70665,-5.81332 2.56,-9.28 0.85331,-3.51998 1.65331,-7.06664 2.4,-10.64 0.74665,-3.62663 1.43998,-7.14663 2.08,-10.56 0.63998,-3.41329 1.17331,-6.39995 1.6,-8.96 l 10.32,0 c -0.64003,3.20005 -1.44003,6.77338 -2.4,10.72 -0.9067,3.9467 -1.97336,8.1067 -3.2,12.48 -1.17336,4.32002 -2.48003,8.74668 -3.92,13.28 -1.44002,4.48001 -2.93336,8.82667 -4.48,13.04 l -10.16,0"
         id="path3910"
         inkscape:connector-curvature="0" />
    </g>
    <g
       style="font-size:80px;font-style:normal;font-variant:normal;font-weight:bold;font-stretch:normal;line-height:125%;letter-spacing:0px;word-spacing:0px;fill:#000000;fill-opacity:1;stroke:none;font-family:Ubuntu Mono;-inkscape-font-specification:Sans Bold"
       id="text3304"
       transform="matrix(-1,0,0,1,746.2128,-7.7431044)">
      <path
         d="m 413.57198,917.71521 0,-8.16 10.8,0 0,-33.2 -10.8,0 0,-8.16 31.44,0 0,8.16 -10.72,0 0,33.2 10.72,0 0,8.16 -31.44,0"
         id="path3907"
         inkscape:connector-curvature="0" />
    </g>
    <g
       style="font-size:80px;font-style:normal;font-variant:normal;font-weight:bold;font-stretch:normal;line-height:125%;letter-spacing:0px;word-spacing:0px;fill:#000000;fill-opacity:1;stroke:none;font-family:Ubuntu Mono;-inkscape-font-specification:Sans Bold"
       id="text3308"
       transform="matrix(-1,0,0,1,746.2128,-7.7431044)">
      <path
         d="m 472.75652,917.71521 0,-49.52 30,0 0,8.16 -20.16,0 0,11.12 17.52,0 0,8.16 -17.52,0 0,13.92 21.92,0 0,8.16 -31.76,0"
         id="path3904"
         inkscape:connector-curvature="0" />
    </g>
    <a
       id="a4703"
       transform="matrix(-1,0,0,1,814.96064,0)">
      <g
         transform="translate(68.747836,-7.7431044)"
         id="text3312"
         style="font-size:80px;font-style:normal;font-variant:normal;font-weight:bold;font-stretch:normal;line-height:125%;letter-spacing:0px;word-spacing:0px;fill:#000000;fill-opacity:1;stroke:none;font-family:Ubuntu Mono;-inkscape-font-specification:Sans Bold">
        <path
           d="m 612.0625,622.5 c -0.80002,10e-5 -1.74585,0.009 -2.8125,0.0625 -1.06668,0.0534 -2.20168,0.14338 -3.375,0.25 -1.17334,0.0534 -2.32667,0.19297 -3.5,0.40625 -1.12001,0.16005 -2.165,0.34922 -3.125,0.5625 l 0,12.09375 9.84375,0 0,-4.59375 c 0.53332,-0.1066 1.0604,-0.15621 1.59375,-0.15625 0.53332,-0.0533 1.00165,-0.0625 1.375,-0.0625 2.61331,4e-5 4.71248,0.61712 6.3125,1.84375 0.96528,0.74009 1.61707,1.72397 2,2.96875 l 10.1875,0 c -0.20959,-1.59479 -0.57847,-3.05216 -1.15625,-4.34375 -0.85337,-2.07996 -2.0967,-3.79162 -3.75,-5.125 -1.65336,-1.33329 -3.64419,-2.3287 -5.9375,-2.96875 -2.29335,-0.63995 -4.8296,-0.93745 -7.65625,-0.9375 z m -12.8125,18.375 0,31.6875 9.84375,0 0,-18.21875 5.125,0 c 1.86665,3.04002 3.58748,6.0446 5.1875,9.03125 1.65331,2.93334 3.08581,5.9875 4.3125,9.1875 l 10.34375,0 c -0.64004,-1.65333 -1.43712,-3.37416 -2.34375,-5.1875 -0.85337,-1.86666 -1.75878,-3.71791 -2.71875,-5.53125 -0.96003,-1.86665 -1.9242,-3.6279 -2.9375,-5.28125 -1.01336,-1.70665 -1.99961,-3.23831 -2.90625,-4.625 2.71997,-1.22664 4.67039,-3.02831 5.84375,-5.375 0.87095,-1.74193 1.4318,-3.62041 1.65625,-5.65625 -0.67063,-0.002 -0.86447,-0.003 -2,0 -1.17053,0.003 -6.35844,-0.001 -8.15625,0 -0.33529,1.34359 -0.98374,2.46428 -1.96875,3.34375 -1.49335,1.28003 -3.92127,1.90628 -7.28125,1.90625 l -2.15625,0 0,-5.28125 c -3.49916,-0.003 -4.94359,0.0102 -9.84375,0 z"
           transform="translate(-68.747836,245.14336)"
           id="path3901"
           inkscape:connector-curvature="0" />
      </g>
    </a>
    <a
       id="a4699"
       transform="matrix(-1,0,0,1,814.96064,0)">
      <g
         transform="translate(10,-8)"
         id="text4096"
         style="font-size:80px;font-style:normal;font-variant:normal;font-weight:bold;font-stretch:normal;line-height:125%;letter-spacing:0px;word-spacing:0px;fill:#000000;fill-opacity:1;stroke:none;font-family:Ubuntu Mono;-inkscape-font-specification:Sans Bold">
        <path
           d="m 432.625,555.46875 -2.34375,12.15625 -9.59375,0 0,8.15625 8,0 -0.34375,1.8125 8.15625,0 0.34375,-1.8125 6.34375,0 -0.34375,1.8125 8.15625,0 0.34375,-1.8125 6.5625,0 0,-8.15625 -4.96875,0 2.3125,-12.15625 -8.15625,0 -2.3125,12.15625 -6.40625,0 2.40625,-12.15625 -8.15625,0 z m -5.25,27.125 -0.375,2 -6.3125,0 0,8.15625 4.8125,0 -2.3125,12.25 8.15625,0 2.21875,-12.25 6.40625,0 -2.3125,12.25 8.15625,0 2.3125,-12.25 9.78125,0 0,-8.15625 -8.25,0 0.375,-1.96875 c -1.491,0.002 -5.9124,-9e-5 -8.09375,0 l -0.375,1.96875 -6.375,0 0.375,-2 c -2.84973,-0.003 -4.39153,0.007 -8.1875,0 z"
           transform="translate(-10,245.40026)"
           id="path4101"
           inkscape:connector-curvature="0" />
      </g>
    </a>
    <a
       id="a4763"
       transform="matrix(-1,0,0,1,814.96064,0)" />
  </g>
</svg>
